<svg width="25" height="25" viewBox="0 0 25 25" fill="none" xmlns="http://www.w3.org/2000/svg">
<circle cx="12.5" cy="12.5" r="12.5" fill="#F8F7F7"/>
<path d="M13 17.3121C12.6763 17.3121 12.4141 17.0498 12.4141 16.7261V9.27393C12.4141 8.95025 12.6763 8.68799 13 8.68799C13.3237 8.68799 13.5859 8.95025 13.5859 9.27393V16.7261C13.5859 17.0498 13.3237 17.3121 13 17.3121Z" fill="#6055D8"/>
<path d="M16.7261 13.5859H9.27393C8.95025 13.5859 8.68799 13.3237 8.68799 13C8.68799 12.6763 8.95025 12.4141 9.27393 12.4141H16.7261C17.0498 12.4141 17.3121 12.6763 17.3121 13C17.3121 13.3237 17.0498 13.5859 16.7261 13.5859Z" fill="#6055D8"/>
</svg>
