<svg width="28" height="28" viewBox="0 0 28 28" fill="none" xmlns="http://www.w3.org/2000/svg">
<circle cx="14" cy="14" r="14" fill="#6055D8" fill-opacity="0.81"/>
<path d="M14 19.0307C13.6224 19.0307 13.3164 18.7247 13.3164 18.3471V9.65289C13.3164 9.27528 13.6224 8.9693 14 8.9693C14.3776 8.9693 14.6836 9.27528 14.6836 9.65289V18.3471C14.6836 18.7247 14.3776 19.0307 14 19.0307Z" fill="white"/>
<path d="M18.3471 14.6836H9.65283C9.27521 14.6836 8.96924 14.3776 8.96924 14C8.96924 13.6224 9.27521 13.3164 9.65283 13.3164H18.3471C18.7247 13.3164 19.0306 13.6224 19.0306 14C19.0306 14.3776 18.7247 14.6836 18.3471 14.6836Z" fill="white"/>
</svg>
