<svg width="22" height="24" viewBox="0 0 22 24" fill="none" xmlns="http://www.w3.org/2000/svg">
<path d="M1.91586 7.03125L3.16128 22.0657C3.25053 23.1499 4.17406 24 5.26241 24H16.7376C17.826 24 18.7495 23.1499 18.8388 22.0657L20.0841 7.03125H1.91586ZM7.48372 21.1875C7.11566 21.1875 6.806 20.9012 6.78266 20.5283L6.07953 9.18455C6.05548 8.79661 6.35005 8.46291 6.73733 8.43886C7.139 8.41069 7.45831 8.70872 7.48302 9.09666L8.18614 20.4404C8.21103 20.8421 7.89317 21.1875 7.48372 21.1875ZM11.7031 20.4844C11.7031 20.873 11.3886 21.1875 11 21.1875C10.6114 21.1875 10.2969 20.873 10.2969 20.4844V9.14062C10.2969 8.75198 10.6114 8.4375 11 8.4375C11.3886 8.4375 11.7031 8.75198 11.7031 9.14062V20.4844ZM15.9205 9.18459L15.2173 20.5283C15.1942 20.8974 14.8866 21.205 14.4717 21.1861C14.0844 21.1621 13.7898 20.8284 13.8139 20.4405L14.517 9.0967C14.541 8.70877 14.8809 8.42653 15.2627 8.43891C15.65 8.46295 15.9445 8.79666 15.9205 9.18459ZM20.1406 2.8125H15.9219V2.10938C15.9219 0.946219 14.9757 0 13.8125 0H8.1875C7.02434 0 6.07812 0.946219 6.07812 2.10938V2.8125H1.85938C1.0827 2.8125 0.453125 3.44208 0.453125 4.21875C0.453125 4.99533 1.0827 5.625 1.85938 5.625H20.1406C20.9173 5.625 21.5469 4.99533 21.5469 4.21875C21.5469 3.44208 20.9173 2.8125 20.1406 2.8125ZM14.5156 2.8125H7.48438V2.10938C7.48438 1.72144 7.79956 1.40625 8.1875 1.40625H13.8125C14.2004 1.40625 14.5156 1.72144 14.5156 2.10938V2.8125Z" fill="#F75A5A" fill-opacity="0.7"/>
</svg>
