<svg width="24" height="24" viewBox="0 0 24 24" fill="none" xmlns="http://www.w3.org/2000/svg">
<path d="M12 0.75C10.8065 0.75 9.66193 1.22411 8.81802 2.06802C7.97411 2.91193 7.5 4.05653 7.5 5.25V6H6.8775C6.24609 5.99934 5.63874 6.24222 5.18191 6.6781C4.72508 7.11398 4.45396 7.70925 4.425 8.34L3.8325 20.6775C3.81731 21.0093 3.86946 21.3407 3.98579 21.6517C4.10213 21.9628 4.28025 22.2471 4.50941 22.4875C4.73857 22.7278 5.01404 22.9193 5.3192 23.0504C5.62436 23.1814 5.95289 23.2493 6.285 23.25H17.715C18.0471 23.2493 18.3756 23.1814 18.6808 23.0504C18.986 22.9193 19.2614 22.7278 19.4906 22.4875C19.7198 22.2471 19.8979 21.9628 20.0142 21.6517C20.1305 21.3407 20.1827 21.0093 20.1675 20.6775L19.575 8.34C19.546 7.70925 19.2749 7.11398 18.8181 6.6781C18.3613 6.24222 17.7539 5.99934 17.1225 6H16.5V5.25C16.5 4.05653 16.0259 2.91193 15.182 2.06802C14.3381 1.22411 13.1935 0.75 12 0.75ZM9 5.25C9 4.45435 9.31607 3.69129 9.87868 3.12868C10.4413 2.56607 11.2043 2.25 12 2.25C12.7956 2.25 13.5587 2.56607 14.1213 3.12868C14.6839 3.69129 15 4.45435 15 5.25V6H9V5.25ZM7.77 9.1425C7.77 8.99416 7.81399 8.84916 7.8964 8.72582C7.97881 8.60249 8.09594 8.50636 8.23299 8.44959C8.37003 8.39283 8.52083 8.37797 8.66632 8.40691C8.8118 8.43585 8.94544 8.50728 9.05033 8.61217C9.15522 8.71706 9.22665 8.8507 9.25559 8.99618C9.28453 9.14167 9.26967 9.29247 9.21291 9.42951C9.15614 9.56656 9.06001 9.68369 8.93668 9.7661C8.81334 9.84851 8.66834 9.8925 8.52 9.8925C8.32109 9.8925 8.13032 9.81348 7.98967 9.67283C7.84902 9.53218 7.77 9.34141 7.77 9.1425ZM14.73 9.1425C14.73 8.99416 14.774 8.84916 14.8564 8.72582C14.9388 8.60249 15.0559 8.50636 15.193 8.44959C15.33 8.39283 15.4808 8.37797 15.6263 8.40691C15.7718 8.43585 15.9054 8.50728 16.0103 8.61217C16.1152 8.71706 16.1866 8.8507 16.2156 8.99618C16.2445 9.14167 16.2297 9.29247 16.1729 9.42951C16.1161 9.56656 16.02 9.68369 15.8967 9.7661C15.7733 9.84851 15.6283 9.8925 15.48 9.8925C15.2811 9.8925 15.0903 9.81348 14.9497 9.67283C14.809 9.53218 14.73 9.34141 14.73 9.1425Z" fill="#9E9E9E"/>
</svg>
