<svg width="20" height="20" viewBox="0 0 20 20" fill="none" xmlns="http://www.w3.org/2000/svg">
<g clip-path="url(#clip0_58_152)">
<path d="M10.0001 0.494507C4.56082 0.494507 0.14209 4.87115 0.14209 10.2473C0.14209 15.6234 4.56082 20 10.0001 20C15.4393 20 19.858 15.6234 19.858 10.2473C19.858 4.86063 15.4288 0.494507 10.0001 0.494507Z" fill="#E5A100"/>
<path d="M10 0C4.69758 0 0.373535 4.31352 0.373535 9.62651C0.373535 14.9395 4.68705 19.253 10 19.253C15.313 19.253 19.6266 14.9395 19.6266 9.62651C19.616 4.31352 15.3025 0 10 0Z" fill="#FFCF00"/>
<path d="M10.0001 1.63074C5.59186 1.63074 2.00427 5.21832 2.00427 9.62653C2.00427 14.0347 5.59186 17.6223 10.0001 17.6223C14.4083 17.6223 17.9959 14.0347 17.9959 9.62653C17.9959 5.21832 14.4083 1.63074 10.0001 1.63074ZM10.0001 16.8227C6.03373 16.8227 2.80385 13.5929 2.80385 9.62653C2.80385 5.6602 6.03373 2.43032 10.0001 2.43032C13.9664 2.43032 17.1963 5.6602 17.1963 9.62653C17.1963 13.5929 13.9664 16.8227 10.0001 16.8227Z" fill="#E5A100"/>
<path d="M9.76862 19.2215C9.72654 19.2215 9.68445 19.2004 9.66341 19.1794C9.64237 19.1478 9.62133 19.1162 9.63185 19.0742L9.69497 17.8432C9.7055 17.7696 9.74758 17.7275 9.82122 17.7275C9.85279 17.7275 9.88435 17.738 9.90539 17.7696C9.92643 17.7906 9.93695 17.8222 9.93695 17.8432L9.91591 19.0847C9.91591 19.1583 9.85279 19.2215 9.76862 19.2215ZM11.8517 19.0321C11.7991 19.0321 11.7465 18.99 11.736 18.9269L11.5151 17.6854C11.5151 17.6539 11.5151 17.6328 11.5256 17.6118C11.5361 17.5907 11.5677 17.5802 11.5887 17.5697H11.6098C11.6624 17.5697 11.6939 17.6013 11.7044 17.6433L11.9885 18.8743C11.999 18.9164 11.9885 18.9479 11.9675 18.9795C11.9464 19.011 11.9149 19.0321 11.8833 19.0426H11.8623C11.8728 19.0321 11.8623 19.0321 11.8517 19.0321ZM7.67498 18.9374H7.64342C7.60134 18.9269 7.56978 18.9058 7.54874 18.8637C7.52769 18.8322 7.52769 18.7901 7.53822 18.7691L7.87488 17.5487C7.8854 17.5066 7.938 17.475 7.98009 17.475H8.00113C8.05373 17.4855 8.0853 17.5381 8.07477 17.6013L7.81176 18.8217C7.80123 18.8848 7.73811 18.9374 7.67498 18.9374ZM13.8717 18.3903C13.8296 18.3903 13.7876 18.3588 13.7665 18.3167L13.272 17.1594C13.251 17.1068 13.272 17.0542 13.3246 17.0226H13.3667C13.4088 17.0226 13.4404 17.0437 13.4614 17.0752L14.0085 18.2009C14.0295 18.243 14.0295 18.2746 14.019 18.3167C14.0085 18.3482 13.9875 18.3693 13.9664 18.3798L13.9348 18.3903C13.9033 18.3798 13.8928 18.3903 13.8717 18.3903ZM5.68656 18.1799C5.66552 18.1799 5.64447 18.1799 5.62343 18.1694C5.59187 18.1483 5.57083 18.1273 5.54979 18.0852C5.53927 18.0431 5.53927 18.0116 5.56031 17.98L6.17051 16.8753C6.19156 16.8227 6.24416 16.8227 6.25468 16.8227C6.27572 16.8227 6.29676 16.8227 6.30728 16.8332C6.33885 16.8438 6.34937 16.8648 6.35989 16.8964C6.37041 16.9174 6.35989 16.9384 6.35989 16.9595L5.81281 18.0957C5.79177 18.1483 5.73916 18.1799 5.68656 18.1799ZM15.7234 17.3172C15.6708 17.3172 15.6287 17.2962 15.5971 17.2541L14.8712 16.2336C14.8396 16.1915 14.8502 16.1283 14.8922 16.0968C14.9133 16.0757 14.9343 16.0757 14.9554 16.0757C14.9869 16.0757 15.0185 16.0863 15.0395 16.1178L15.8181 17.0963C15.8391 17.1278 15.8496 17.1594 15.8496 17.2015C15.8496 17.2435 15.8286 17.2751 15.797 17.2962L15.7865 17.3067C15.7549 17.3172 15.7339 17.3172 15.7234 17.3172ZM3.91907 17.0121C3.8875 17.0121 3.85594 17.0016 3.8349 16.9805C3.77178 16.9279 3.76126 16.8332 3.81386 16.7701L4.645 15.8338C4.66604 15.8127 4.6976 15.8022 4.72917 15.8022C4.75021 15.8022 4.78177 15.8127 4.79229 15.8232C4.83437 15.8548 4.85542 15.9179 4.81333 15.9705L4.0348 16.949C4.00323 16.9911 3.96115 17.0121 3.91907 17.0121ZM17.2489 15.8443C17.2173 15.8443 17.1858 15.8338 17.1542 15.8022L16.2179 14.9711C16.1758 14.929 16.1758 14.8659 16.2073 14.8238C16.2284 14.8027 16.2599 14.7922 16.2915 14.7922C16.3125 14.7922 16.3336 14.8027 16.3546 14.8132L17.3331 15.5918C17.3646 15.6128 17.3857 15.6549 17.3857 15.6865C17.3857 15.7075 17.3857 15.7496 17.3541 15.7812L17.3436 15.7917V15.8022C17.312 15.8338 17.2805 15.8443 17.2489 15.8443ZM2.47772 15.4761C2.43564 15.4761 2.39355 15.455 2.36199 15.4235C2.34095 15.3919 2.33043 15.3498 2.34095 15.3077C2.34095 15.2867 2.36199 15.2551 2.39355 15.2341L3.42459 14.4976C3.43511 14.4871 3.46667 14.4766 3.48771 14.4766C3.51928 14.4766 3.56136 14.4871 3.5824 14.5187C3.62449 14.5713 3.60344 14.6239 3.56136 14.666L2.58293 15.4445C2.54084 15.4655 2.50928 15.4761 2.47772 15.4761ZM18.4167 14.0873C18.3957 14.0873 18.3746 14.0768 18.3536 14.0768L17.2489 13.4666C17.1858 13.435 17.1858 13.3719 17.2068 13.3193L17.2173 13.2983V13.2877C17.2384 13.2667 17.2699 13.2457 17.3015 13.2457C17.312 13.2457 17.3225 13.2457 17.3436 13.2562L18.4798 13.8033C18.5114 13.8243 18.5429 13.8559 18.5535 13.8874C18.564 13.919 18.564 13.9505 18.5429 13.9821L18.5324 14.0031V14.0137C18.5009 14.0663 18.4588 14.0873 18.4167 14.0873ZM1.37304 13.656C1.32043 13.656 1.27835 13.6244 1.25731 13.5718C1.23627 13.5402 1.23627 13.5087 1.24679 13.4666C1.25731 13.435 1.28887 13.4035 1.32043 13.3824L2.47772 12.8879C2.48824 12.8879 2.50928 12.8774 2.5198 12.8774C2.56189 12.8774 2.59345 12.8985 2.61449 12.9405C2.63553 12.9826 2.61449 13.0563 2.57241 13.0668L1.44668 13.6139C1.41512 13.6454 1.39408 13.656 1.37304 13.656ZM19.1742 12.0989H19.1426L17.9327 11.7517C17.8801 11.7412 17.8486 11.6781 17.8591 11.6255V11.6149C17.8801 11.5728 17.9117 11.5413 17.9643 11.5413H17.9853L19.2058 11.8253C19.2478 11.8359 19.2794 11.8569 19.3004 11.8885C19.3215 11.92 19.3215 11.9516 19.3215 11.9832C19.2899 12.0568 19.2373 12.0989 19.1742 12.0989ZM0.731271 11.6465C0.668146 11.6465 0.615542 11.6044 0.5945 11.5518V11.5202C0.58398 11.4782 0.5945 11.4466 0.615542 11.4256C0.636584 11.394 0.668146 11.373 0.710229 11.3624L1.9622 11.1415H1.98324C2.02533 11.1415 2.05689 11.1731 2.06741 11.2046V11.2362C2.07793 11.2888 2.04637 11.3414 1.99376 11.3519L0.773354 11.636C0.762833 11.6465 0.741791 11.6465 0.731271 11.6465ZM18.2168 9.94213C18.1432 9.93161 18.1011 9.88952 18.1011 9.81588C18.1011 9.74223 18.1537 9.68963 18.2273 9.68963H19.4583C19.5003 9.68963 19.5319 9.71067 19.5635 9.73171C19.5845 9.76328 19.595 9.79484 19.595 9.8264V9.879C19.595 9.92109 19.5845 9.94213 19.574 9.95265C19.5424 9.98421 19.5003 10.0053 19.4583 10.0053L18.2168 9.94213ZM0.531376 9.53182C0.468251 9.53182 0.415647 9.46869 0.415647 9.39505C0.405126 9.31088 0.45773 9.25828 0.531376 9.25828L1.80439 9.3214C1.84647 9.3214 1.88856 9.36349 1.88856 9.42661C1.88856 9.46869 1.83595 9.5213 1.79387 9.5213L0.531376 9.53182ZM18.059 8.09047C18.0064 8.09047 17.9538 8.05891 17.9433 7.99578C17.9327 7.96422 17.9433 7.93266 17.9538 7.91162C17.9643 7.89058 17.9853 7.88006 18.0169 7.86954L19.2478 7.58547H19.2794C19.3425 7.58547 19.3951 7.62756 19.4057 7.68016V7.7012C19.4267 7.78537 19.3636 7.84849 19.2899 7.86954L18.059 8.09047ZM2.04637 7.71172H2.02533L0.794395 7.42766C0.72075 7.40662 0.678667 7.33298 0.699708 7.25933V7.22777C0.72075 7.17516 0.773354 7.1436 0.825958 7.1436C0.836478 7.1436 0.846999 7.1436 0.85752 7.15412L2.08845 7.50131C2.10949 7.51183 2.13053 7.52235 2.14106 7.54339C2.15158 7.55391 2.1621 7.58547 2.15158 7.60652V7.63808C2.13053 7.69068 2.09897 7.71172 2.04637 7.71172ZM17.4593 6.32298C17.4277 6.32298 17.3962 6.30194 17.3751 6.25986C17.3646 6.23881 17.3646 6.20725 17.3646 6.17569C17.3751 6.14413 17.3962 6.12309 17.4172 6.11257L18.5429 5.55496C18.564 5.54444 18.585 5.53392 18.6061 5.53392C18.6587 5.53392 18.7008 5.56548 18.7218 5.60757C18.7323 5.63913 18.7428 5.68121 18.7218 5.7233C18.7113 5.75486 18.6797 5.78642 18.6482 5.79694L17.4909 6.31246L17.4804 6.32298H17.4593ZM2.68814 5.99684C2.67761 5.99684 2.65657 5.99684 2.64605 5.98632L1.52033 5.43924C1.48877 5.41819 1.4572 5.38663 1.44668 5.35507C1.43616 5.32351 1.43616 5.28142 1.4572 5.24986L1.46773 5.22882V5.2183C1.49929 5.17622 1.54137 5.1657 1.58345 5.1657C1.6045 5.1657 1.62554 5.17622 1.64658 5.18674L2.75126 5.80746C2.78282 5.8285 2.79334 5.84955 2.80386 5.87059C2.81438 5.90215 2.80386 5.92319 2.79334 5.95475C2.7723 5.97579 2.73022 5.99684 2.68814 5.99684ZM16.5335 4.75538C16.5019 4.75538 16.4704 4.73434 16.4493 4.7133C16.4072 4.6607 16.4178 4.60809 16.4598 4.56601L17.4383 3.77695C17.4593 3.75591 17.4909 3.74539 17.533 3.74539C17.554 3.74539 17.6066 3.75591 17.6382 3.79799C17.6592 3.82956 17.6697 3.86112 17.6697 3.9032C17.6697 3.94528 17.6487 3.97685 17.6066 3.99789L16.5966 4.72382C16.5756 4.74486 16.5545 4.75538 16.5335 4.75538ZM3.70865 4.47132C3.68761 4.47132 3.66657 4.47132 3.64553 4.45028L2.66709 3.66122C2.60397 3.60862 2.59345 3.52445 2.64605 3.46133C2.66709 3.42977 2.70918 3.41925 2.75126 3.41925C2.78282 3.41925 2.81438 3.42977 2.83543 3.45081L3.7823 4.29247C3.80334 4.31351 3.81386 4.33455 3.81386 4.36612C3.81386 4.39768 3.80334 4.41872 3.79282 4.43976C3.77178 4.4608 3.74021 4.47132 3.70865 4.47132ZM15.2605 3.41925C15.2394 3.41925 15.2184 3.40873 15.1973 3.3982C15.1447 3.35612 15.1447 3.30352 15.1763 3.25091L15.9548 2.27248C15.9864 2.24092 16.0285 2.21988 16.0706 2.21988C16.0916 2.21988 16.1232 2.21988 16.1547 2.25144C16.1863 2.27248 16.1968 2.30404 16.1968 2.34613C16.1968 2.38821 16.1863 2.41977 16.1653 2.44081L15.3341 3.38768C15.3236 3.40873 15.292 3.41925 15.2605 3.41925ZM5.03427 3.19831C5.00271 3.19831 4.97114 3.18779 4.9501 3.16675L4.17157 2.18831C4.15052 2.15675 4.14 2.11467 4.14 2.08311C4.14 2.06207 4.15052 2.01998 4.19261 1.99894C4.22417 1.9779 4.25573 1.96738 4.26625 1.96738C4.30834 1.96738 4.36094 1.98842 4.3925 2.0305L5.11844 3.0405C5.15 3.08258 5.13948 3.14571 5.09739 3.18779C5.08687 3.18779 5.06583 3.19831 5.03427 3.19831ZM13.735 2.41977C13.7244 2.41977 13.7034 2.41977 13.6929 2.40925C13.6718 2.39873 13.6508 2.37769 13.6403 2.34613C13.6297 2.31456 13.6297 2.29352 13.6508 2.26196L14.1979 1.13624C14.2189 1.08363 14.2715 1.05207 14.3241 1.05207C14.3452 1.05207 14.3662 1.05207 14.3872 1.06259C14.4188 1.08363 14.4398 1.10467 14.4609 1.14676C14.4714 1.18884 14.4714 1.2204 14.4504 1.25197L13.8612 2.34613C13.8086 2.38821 13.7665 2.41977 13.735 2.41977ZM6.60187 2.25144C6.55978 2.25144 6.52822 2.2304 6.50718 2.18831L5.94958 1.06259C5.92854 1.03103 5.92854 0.988946 5.93906 0.957384C5.94958 0.925821 5.98114 0.894259 6.0127 0.873217C6.02322 0.873217 6.04426 0.862697 6.06531 0.862697C6.11791 0.862697 6.17051 0.894259 6.19156 0.946863L6.68603 2.10415C6.70707 2.15675 6.68603 2.20936 6.63343 2.24092C6.63343 2.25144 6.62291 2.25144 6.60187 2.25144ZM12.0201 1.76748H11.9885C11.9569 1.75696 11.9359 1.73592 11.9149 1.71488C11.9043 1.69384 11.8938 1.6728 11.9043 1.64123L12.1779 0.410303C12.1884 0.347179 12.2515 0.294575 12.3146 0.294575H12.3462C12.4199 0.315616 12.4619 0.389262 12.4514 0.473428L12.1042 1.68332C12.0937 1.74644 12.0516 1.76748 12.0201 1.76748ZM8.36936 1.68332C8.31675 1.68332 8.26415 1.65176 8.26415 1.60967L7.98009 0.389262C7.96957 0.347179 7.98009 0.305095 8.00113 0.273533C8.02217 0.241971 8.05373 0.23145 8.0853 0.220929H8.11686C8.17998 0.220929 8.24311 0.273533 8.25363 0.347179L8.47456 1.57811C8.47456 1.60967 8.47456 1.63071 8.46404 1.65176C8.45352 1.6728 8.42196 1.68332 8.40092 1.69384C8.37988 1.68332 8.36936 1.68332 8.36936 1.68332ZM10.1895 1.52551C10.1158 1.52551 10.0842 1.4729 10.0842 1.4203V0.168325C10.0842 0.0841591 10.1579 0.0315552 10.221 0.0315552H10.2315C10.3052 0.0315552 10.3683 0.0946799 10.3683 0.178846L10.3052 1.43082C10.3052 1.4729 10.2526 1.52551 10.1895 1.52551Z" fill="#FFE500"/>
<path d="M12.7776 17.1173C11.8728 17.4645 10.8838 17.6433 9.89487 17.6433C7.45405 17.6433 4.93958 16.5492 3.34042 14.0768C2.9722 13.5192 2.84595 13.2141 2.84595 13.2141L3.31938 12.3409C3.31938 12.3304 3.31938 12.3198 3.3299 12.3198C4.3925 14.9606 6.99113 16.8227 10.0001 16.8227C13.9664 16.8227 17.1963 13.5928 17.1963 9.62652C17.1963 8.86902 17.0806 8.13257 16.8596 7.43819V7.42767C17.0595 7.46976 17.4383 7.58549 17.7539 7.68017C18.9427 12.1936 16.3336 15.8022 12.7776 17.1173Z" fill="#FFE500"/>
<path d="M10 2.4303C6.03371 2.4303 2.80383 5.66018 2.80383 9.62651C2.80383 10.5734 2.99321 11.4782 3.32987 12.3093C4.29778 9.82641 7.11735 8.21673 9.4214 7.32246C11.3362 6.58601 14.7975 6.38611 16.8491 7.41715C15.9127 4.53445 13.1984 2.4303 10 2.4303Z" fill="#FFC500"/>
<path d="M12.8091 9.32142H13.777V7.52237H13.4088C13.1984 4.55551 9.1479 4.3451 7.03322 5.21832V7.52237H6.23364V9.32142H8.22207C8.01165 9.44767 7.82228 9.57392 7.65395 9.71069H6.23364V11.5097H6.64395C6.52822 15.1079 11.0942 15.1815 13.3878 14.0663V11.5097H13.777V9.71069H12.4304C12.5672 9.58444 12.6934 9.45819 12.8091 9.32142ZM12.8302 11.657C12.3357 12.3093 9.05321 13.1931 9.49508 11.5097H12.9564L12.8302 11.657ZM10.2947 7.12258C10.463 7.21727 10.5682 7.34352 10.6208 7.51185H7.59082C8.23259 7.11206 9.62133 6.76487 10.2947 7.12258Z" fill="#FFE500"/>
<path d="M13.4614 7.7328V8.9006H12.6618C12.3462 9.32143 11.9043 9.6581 11.3362 9.92112H13.4614V11.0889H9.2741C8.29567 13.3404 12.1252 12.8249 13.0616 11.7623V13.7612C10.8733 14.8133 6.41245 14.4345 6.99109 11.0889H6.5387V9.92112H7.75911C8.23254 9.51081 8.91639 9.17414 9.61076 8.9006H6.5387V7.7328H10.9574C11.01 5.97583 8.28515 6.53343 7.33828 7.20676V5.33406C9.36879 4.5976 13.1773 4.83958 13.0931 7.7328H13.4614Z" fill="#C78C00"/>
</g>
<defs>
<clipPath id="clip0_58_152">
<rect width="20" height="20" fill="white"/>
</clipPath>
</defs>
</svg>
