<svg width="25" height="25" viewBox="0 0 25 25" fill="none" xmlns="http://www.w3.org/2000/svg">
<circle cx="12.5" cy="12.5" r="12.5" fill="#F8F7F7"/>
<path d="M10.4086 16.7965C9.93535 16.265 9.5531 15.745 9.18385 15.2415C8.84649 14.7836 8.55397 14.2943 8.31035 13.7803C8.15785 13.4683 8.09035 13.1528 8.4206 12.9495C9.36735 12.3678 9.56135 12.9233 10.0756 13.5678C10.3806 13.9498 10.8306 14.5795 11.1123 14.9775C11.3816 15.3575 11.7098 14.6718 11.8406 14.478C12.3063 13.7905 13.5163 12.1065 14.0166 11.4843C14.4913 10.8933 16.0236 9.23803 16.3091 8.97478C16.5523 8.75053 17.0658 8.25903 17.4111 8.53028C17.7736 8.81528 17.9511 9.35703 17.6961 9.70928C17.2518 10.3225 16.5543 10.9058 16.0716 11.4898C15.0946 12.6718 14.1696 13.9458 13.2816 15.2145C12.9798 15.6455 12.5563 16.3675 12.2933 16.835C11.8013 17.7098 11.3693 17.876 10.4083 16.7965H10.4086Z" fill="#6055D8"/>
</svg>
