<svg width="24" height="24" viewBox="0 0 24 24" fill="none" xmlns="http://www.w3.org/2000/svg">
<path d="M12 0C9.62663 0 7.30655 0.703787 5.33316 2.02236C3.35977 3.34094 1.8217 5.21508 0.913451 7.4078C0.00519945 9.60051 -0.232441 12.0133 0.230582 14.3411C0.693604 16.6689 1.83649 18.807 3.51472 20.4853C5.19295 22.1635 7.33115 23.3064 9.65892 23.7694C11.9867 24.2324 14.3995 23.9948 16.5922 23.0865C18.7849 22.1783 20.6591 20.6402 21.9776 18.6668C23.2962 16.6935 24 14.3734 24 12C23.9962 8.81855 22.7308 5.76849 20.4811 3.51886C18.2315 1.26924 15.1814 0.00375324 12 0ZM16.044 16.044C15.8394 16.2485 15.562 16.3634 15.2727 16.3634C14.9835 16.3634 14.706 16.2485 14.5015 16.044L11.2287 12.7713C11.0241 12.5667 10.9092 12.2893 10.9091 12V5.45454C10.9091 5.16522 11.024 4.88774 11.2286 4.68316C11.4332 4.47857 11.7107 4.36364 12 4.36364C12.2893 4.36364 12.5668 4.47857 12.7714 4.68316C12.976 4.88774 13.0909 5.16522 13.0909 5.45454V11.5484L16.044 14.5015C16.2485 14.706 16.3634 14.9835 16.3634 15.2727C16.3634 15.562 16.2485 15.8394 16.044 16.044Z" fill="#6055D8"/>
</svg>
