<svg width="20" height="20" viewBox="0 0 20 20" fill="none" xmlns="http://www.w3.org/2000/svg">
<path d="M18.3334 3.33331H1.66671C0.930328 3.33331 0.333374 3.93027 0.333374 4.66665V14.6666C0.333374 15.403 0.930328 16 1.66671 16H18.3334C19.0698 16 19.6667 15.403 19.6667 14.6666V4.66665C19.6667 3.93027 19.0698 3.33331 18.3334 3.33331Z" fill="#25A3DA"/>
<path d="M15.6667 14.6666C16.219 14.6666 16.6667 14.2189 16.6667 13.6666C16.6667 13.1143 16.219 12.6666 15.6667 12.6666C15.1145 12.6666 14.6667 13.1143 14.6667 13.6666C14.6667 14.2189 15.1145 14.6666 15.6667 14.6666Z" fill="#EC3A48"/>
<path d="M5.00008 5H2.33341C1.96522 5 1.66675 5.29848 1.66675 5.66667V7.66667C1.66675 8.03486 1.96522 8.33333 2.33341 8.33333H5.00008C5.36827 8.33333 5.66675 8.03486 5.66675 7.66667V5.66667C5.66675 5.29848 5.36827 5 5.00008 5Z" fill="#FCCB55"/>
<path d="M17.3334 14.6666C17.8857 14.6666 18.3334 14.2189 18.3334 13.6666C18.3334 13.1143 17.8857 12.6666 17.3334 12.6666C16.7811 12.6666 16.3334 13.1143 16.3334 13.6666C16.3334 14.2189 16.7811 14.6666 17.3334 14.6666Z" fill="#FCCB55"/>
<path d="M15.3334 7.99997C15.2653 7.99991 15.1988 7.97897 15.1429 7.93995C15.087 7.90093 15.0444 7.84571 15.0209 7.78174C14.9973 7.71777 14.994 7.64813 15.0112 7.58219C15.0285 7.51625 15.0656 7.45719 15.1174 7.41297C15.1841 7.36664 15.2385 7.30489 15.2761 7.23297C15.3137 7.16106 15.3333 7.08111 15.3333 6.99997C15.3333 6.91882 15.3137 6.83887 15.2761 6.76696C15.2385 6.69504 15.1841 6.63329 15.1174 6.58697C15.0502 6.5295 15.0085 6.44767 15.0015 6.35946C14.9946 6.27126 15.023 6.18391 15.0804 6.11663C15.1379 6.04936 15.2197 6.00766 15.308 6.00072C15.3962 5.99378 15.4835 6.02217 15.5508 6.07963C15.6908 6.18872 15.8041 6.32833 15.882 6.48781C15.9599 6.6473 16.0004 6.82246 16.0004 6.99997C16.0004 7.17747 15.9599 7.35263 15.882 7.51212C15.8041 7.67161 15.6908 7.81121 15.5508 7.9203C15.4903 7.9722 15.4131 8.00049 15.3334 7.99997Z" fill="#295474"/>
<path d="M16.3334 8.99998C16.2684 8.99994 16.2048 8.98091 16.1505 8.94521C16.0962 8.90952 16.0535 8.85872 16.0277 8.79907C16.0018 8.73941 15.994 8.67352 16.0052 8.60948C16.0163 8.54544 16.0459 8.48606 16.0904 8.43864C16.4604 8.05104 16.6668 7.5358 16.6668 6.99998C16.6668 6.46415 16.4604 5.94892 16.0904 5.56131C16.0591 5.52966 16.0344 5.49207 16.0179 5.45074C16.0013 5.40941 15.9932 5.36518 15.9941 5.32067C15.9949 5.27616 16.0046 5.23227 16.0227 5.19158C16.0408 5.15089 16.0668 5.11424 16.0993 5.08378C16.1317 5.05332 16.17 5.02967 16.2117 5.01423C16.2535 4.99878 16.2979 4.99186 16.3424 4.99387C16.3869 4.99588 16.4305 5.00677 16.4707 5.02591C16.5109 5.04505 16.5468 5.07205 16.5764 5.10531C17.0624 5.61642 17.3334 6.29472 17.3334 6.99998C17.3334 7.70524 17.0624 8.38353 16.5764 8.89464C16.5452 8.92787 16.5076 8.95436 16.4658 8.97248C16.424 8.9906 16.379 8.99995 16.3334 8.99998Z" fill="#295474"/>
<path d="M17.3334 9.66665C17.2674 9.6667 17.2028 9.64714 17.1479 9.61046C17.093 9.57377 17.0503 9.52161 17.0251 9.46059C16.9999 9.39956 16.9933 9.33243 17.0063 9.26769C17.0193 9.20296 17.0513 9.14354 17.0981 9.09698C17.383 8.82705 17.6099 8.5019 17.765 8.14136C17.9201 7.78082 18 7.39246 18 6.99998C18 6.60751 17.9201 6.21915 17.765 5.85861C17.6099 5.49807 17.383 5.17291 17.0981 4.90298C17.0354 4.84057 17.0001 4.75581 16.9999 4.66736C16.9997 4.5789 17.0347 4.494 17.0971 4.43132C17.1595 4.36864 17.2443 4.33332 17.3327 4.33313C17.4212 4.33294 17.5061 4.3679 17.5687 4.43032C17.9158 4.7623 18.192 5.16114 18.3807 5.60278C18.5694 6.04442 18.6667 6.51971 18.6667 6.99998C18.6667 7.48025 18.5694 7.95554 18.3807 8.39719C18.192 8.83883 17.9158 9.23767 17.5687 9.56965C17.5062 9.63184 17.4216 9.66672 17.3334 9.66665ZM3.66675 14.6666H2.00008C1.91168 14.6666 1.82689 14.6315 1.76438 14.569C1.70187 14.5065 1.66675 14.4217 1.66675 14.3333C1.66675 14.2449 1.70187 14.1601 1.76438 14.0976C1.82689 14.0351 1.91168 14 2.00008 14H3.66675C3.75515 14 3.83994 14.0351 3.90245 14.0976C3.96496 14.1601 4.00008 14.2449 4.00008 14.3333C4.00008 14.4217 3.96496 14.5065 3.90245 14.569C3.83994 14.6315 3.75515 14.6666 3.66675 14.6666ZM4.66675 11.3333H2.66675C2.57834 11.3333 2.49356 11.2982 2.43105 11.2357C2.36853 11.1732 2.33341 11.0884 2.33341 11C2.33341 10.9116 2.36853 10.8268 2.43105 10.7643C2.49356 10.7018 2.57834 10.6666 2.66675 10.6666H4.66675C4.75515 10.6666 4.83994 10.7018 4.90245 10.7643C4.96496 10.8268 5.00008 10.9116 5.00008 11C5.00008 11.0884 4.96496 11.1732 4.90245 11.2357C4.83994 11.2982 4.75515 11.3333 4.66675 11.3333ZM8.00008 11.3333H6.00008C5.91168 11.3333 5.82689 11.2982 5.76438 11.2357C5.70187 11.1732 5.66675 11.0884 5.66675 11C5.66675 10.9116 5.70187 10.8268 5.76438 10.7643C5.82689 10.7018 5.91168 10.6666 6.00008 10.6666H8.00008C8.08849 10.6666 8.17327 10.7018 8.23578 10.7643C8.2983 10.8268 8.33342 10.9116 8.33342 11C8.33342 11.0884 8.2983 11.1732 8.23578 11.2357C8.17327 11.2982 8.08849 11.3333 8.00008 11.3333ZM11.3334 11.3333H9.33342C9.24501 11.3333 9.16022 11.2982 9.09771 11.2357C9.0352 11.1732 9.00008 11.0884 9.00008 11C9.00008 10.9116 9.0352 10.8268 9.09771 10.7643C9.16022 10.7018 9.24501 10.6666 9.33342 10.6666H11.3334C11.4218 10.6666 11.5066 10.7018 11.5691 10.7643C11.6316 10.8268 11.6667 10.9116 11.6667 11C11.6667 11.0884 11.6316 11.1732 11.5691 11.2357C11.5066 11.2982 11.4218 11.3333 11.3334 11.3333ZM14.6667 11.3333H12.6667C12.5783 11.3333 12.4936 11.2982 12.431 11.2357C12.3685 11.1732 12.3334 11.0884 12.3334 11C12.3334 10.9116 12.3685 10.8268 12.431 10.7643C12.4936 10.7018 12.5783 10.6666 12.6667 10.6666H14.6667C14.7552 10.6666 14.8399 10.7018 14.9025 10.7643C14.965 10.8268 15.0001 10.9116 15.0001 11C15.0001 11.0884 14.965 11.1732 14.9025 11.2357C14.8399 11.2982 14.7552 11.3333 14.6667 11.3333ZM6.66675 14.6666H5.00008C4.91168 14.6666 4.82689 14.6315 4.76438 14.569C4.70187 14.5065 4.66675 14.4217 4.66675 14.3333C4.66675 14.2449 4.70187 14.1601 4.76438 14.0976C4.82689 14.0351 4.91168 14 5.00008 14H6.66675C6.75515 14 6.83994 14.0351 6.90245 14.0976C6.96496 14.1601 7.00008 14.2449 7.00008 14.3333C7.00008 14.4217 6.96496 14.5065 6.90245 14.569C6.83994 14.6315 6.75515 14.6666 6.66675 14.6666ZM7.66675 12.6666H6.33342C6.24501 12.6666 6.16022 12.6315 6.09771 12.569C6.0352 12.5065 6.00008 12.4217 6.00008 12.3333C6.00008 12.2449 6.0352 12.1601 6.09771 12.0976C6.16022 12.0351 6.24501 12 6.33342 12H7.66675C7.75515 12 7.83994 12.0351 7.90245 12.0976C7.96496 12.1601 8.00008 12.2449 8.00008 12.3333C8.00008 12.4217 7.96496 12.5065 7.90245 12.569C7.83994 12.6315 7.75515 12.6666 7.66675 12.6666ZM9.33342 12.6666H9.00008C8.91168 12.6666 8.82689 12.6315 8.76438 12.569C8.70187 12.5065 8.66675 12.4217 8.66675 12.3333C8.66675 12.2449 8.70187 12.1601 8.76438 12.0976C8.82689 12.0351 8.91168 12 9.00008 12H9.33342C9.42182 12 9.50661 12.0351 9.56912 12.0976C9.63163 12.1601 9.66675 12.2449 9.66675 12.3333C9.66675 12.4217 9.63163 12.5065 9.56912 12.569C9.50661 12.6315 9.42182 12.6666 9.33342 12.6666ZM11.0001 12.6666H10.6667C10.5783 12.6666 10.4936 12.6315 10.431 12.569C10.3685 12.5065 10.3334 12.4217 10.3334 12.3333C10.3334 12.2449 10.3685 12.1601 10.431 12.0976C10.4936 12.0351 10.5783 12 10.6667 12H11.0001C11.0885 12 11.1733 12.0351 11.2358 12.0976C11.2983 12.1601 11.3334 12.2449 11.3334 12.3333C11.3334 12.4217 11.2983 12.5065 11.2358 12.569C11.1733 12.6315 11.0885 12.6666 11.0001 12.6666Z" fill="#295474"/>
<path d="M3.33341 8.33333V7.33333H5.66675V6.66667H4.66675V5H4.00008V6.66667H3.33341V5H2.66675V6.66667H1.66675V7.33333H2.66675V8.33333H3.33341Z" fill="#E2B550"/>
</svg>
