<svg width="4" height="18" viewBox="0 0 4 18" fill="none" xmlns="http://www.w3.org/2000/svg">
<path d="M1.99996 10.92C3.06034 10.92 3.91996 10.0604 3.91996 9C3.91996 7.93961 3.06034 7.08 1.99996 7.08C0.939569 7.08 0.0799561 7.93961 0.0799561 9C0.0799561 10.0604 0.939569 10.92 1.99996 10.92Z" fill="black"/>
<path d="M1.99996 17.04C3.06034 17.04 3.91996 16.1804 3.91996 15.12C3.91996 14.0596 3.06034 13.2 1.99996 13.2C0.939569 13.2 0.0799561 14.0596 0.0799561 15.12C0.0799561 16.1804 0.939569 17.04 1.99996 17.04Z" fill="black"/>
<path d="M1.99996 4.8C3.06034 4.8 3.91996 3.94039 3.91996 2.88C3.91996 1.81961 3.06034 0.959999 1.99996 0.959999C0.939569 0.959999 0.0799561 1.81961 0.0799561 2.88C0.0799561 3.94039 0.939569 4.8 1.99996 4.8Z" fill="black"/>
</svg>
