<svg width="24" height="22" viewBox="0 0 24 22" fill="none" xmlns="http://www.w3.org/2000/svg">
<path d="M22.0615 2.409C20.8048 1.15227 19.141 0.465398 17.3653 0.465398C15.5896 0.465398 13.9207 1.15736 12.664 2.41409L12.0077 3.07044L11.3411 2.40391C10.0844 1.14719 8.41047 0.450134 6.63477 0.450134C4.86416 0.450134 3.1953 1.1421 1.94366 2.39374C0.686934 3.65047 -0.00502959 5.31932 5.83779e-05 7.09502C5.83779e-05 8.87072 0.69711 10.5345 1.95384 11.7912L11.509 21.3464C11.6413 21.4787 11.8194 21.5499 11.9924 21.5499C12.1654 21.5499 12.3435 21.4838 12.4758 21.3515L22.0513 11.8116C23.308 10.5548 24 8.88599 24 7.11028C24.0051 5.33458 23.3182 3.66573 22.0615 2.409ZM21.0846 10.8398L11.9924 19.8963L2.92055 10.8245C1.92331 9.82726 1.37381 8.50439 1.37381 7.09502C1.37381 5.68565 1.91822 4.36278 2.91546 3.37063C3.90762 2.37847 5.23049 1.82897 6.63477 1.82897C8.04414 1.82897 9.3721 2.37847 10.3693 3.37572L11.5192 4.5256C11.7889 4.79526 12.2214 4.79526 12.491 4.5256L13.6307 3.38589C14.628 2.38865 15.9559 1.83915 17.3602 1.83915C18.7645 1.83915 20.0874 2.38865 21.0846 3.3808C22.0818 4.37805 22.6263 5.70092 22.6263 7.11028C22.6313 8.51965 22.0818 9.84253 21.0846 10.8398Z" fill="white"/>
</svg>
