<svg width="24" height="24" viewBox="0 0 24 24" fill="none" xmlns="http://www.w3.org/2000/svg">
<path d="M20.4 13.6001C20.4 10.7266 18.072 8.39999 15.1999 8.39999C12.3281 8.39999 10.0008 10.7266 10.0008 13.6001C9.33838 13.6001 8.80078 14.1374 8.80078 14.8001V18.7999C8.80078 19.4626 9.33838 19.9999 10.0008 19.9999H12.4008C12.6211 19.9999 12.7999 19.8211 12.7999 19.6001V16.8C12.7999 16.3601 12.6398 15.678 12.443 15.2844L11.6009 13.6001C11.6009 11.611 13.211 10.0001 15.2001 10.0001C17.1876 10.0001 18.8001 11.611 18.8001 13.6001L17.958 15.2844C17.7612 15.6782 17.6001 16.3601 17.6001 16.8V19.6922C16.8849 20.1544 16.0514 20.4002 15.1999 20.4H14.4V21.6H15.1999C16.7321 21.6 18.1188 20.9882 19.1373 19.9999H20.4C20.7182 19.9999 21.0235 19.8735 21.2485 19.6484C21.4736 19.4234 21.6 19.1182 21.6 18.7999V14.8001C21.6 14.4818 21.4736 14.1766 21.2485 13.9515C21.0235 13.7265 20.7182 13.6001 20.4 13.6001Z" fill="black"/>
<path d="M15.1998 7.19999C15.4717 7.19999 15.7374 7.22255 16 7.25543V4.00007C16 3.12023 15.2795 2.39999 14.3999 2.39999H3.99998C3.1199 2.39999 2.3999 3.12023 2.3999 4.00007V8.80007C2.3999 9.67991 3.1199 10.4002 3.99998 10.4002V12.8002L8.00006 10.4002H9.66686C10.7752 8.49047 12.8373 7.19999 15.1998 7.19999ZM11.9999 5.59991C12.105 5.59982 12.209 5.62044 12.3061 5.66061C12.4032 5.70078 12.4914 5.7597 12.5657 5.83399C12.64 5.90829 12.699 5.99651 12.7391 6.09361C12.7793 6.1907 12.7999 6.29476 12.7998 6.39983C12.7998 6.55804 12.7529 6.7127 12.665 6.84425C12.5771 6.97579 12.4522 7.07832 12.306 7.13886C12.1599 7.19941 11.999 7.21525 11.8438 7.18438C11.6887 7.15352 11.5461 7.07733 11.4343 6.96546C11.3224 6.85359 11.2462 6.71106 11.2154 6.55589C11.1845 6.40072 11.2003 6.23988 11.2609 6.09372C11.3214 5.94755 11.4239 5.82262 11.5555 5.73472C11.687 5.64683 11.8417 5.59991 11.9999 5.59991ZM6.39998 7.19999C6.1878 7.19999 5.98431 7.1157 5.83427 6.96567C5.68423 6.81563 5.59994 6.61214 5.59994 6.39995C5.59994 6.18777 5.68423 5.98428 5.83427 5.83424C5.98431 5.6842 6.1878 5.59991 6.39998 5.59991C6.61217 5.59991 6.81566 5.6842 6.9657 5.83424C7.11573 5.98428 7.20002 6.18777 7.20002 6.39995C7.20002 6.61214 7.11573 6.81563 6.9657 6.96567C6.81566 7.1157 6.61217 7.19999 6.39998 7.19999ZM8.3999 6.40007C8.3999 6.18789 8.48419 5.9844 8.63423 5.83436C8.78427 5.68432 8.98776 5.60003 9.19994 5.60003C9.41213 5.60003 9.61562 5.68432 9.76566 5.83436C9.91569 5.9844 9.99998 6.18789 9.99998 6.40007C9.99998 6.61226 9.91569 6.81575 9.76566 6.96579C9.61562 7.11582 9.41213 7.20011 9.19994 7.20011C8.98776 7.20011 8.78427 7.11582 8.63423 6.96579C8.48419 6.81575 8.3999 6.61226 8.3999 6.40007Z" fill="black"/>
</svg>
