<svg width="24" height="24" viewBox="0 0 24 24" fill="none" xmlns="http://www.w3.org/2000/svg">
<g clip-path="url(#clip0_75_92)">
<path d="M6.29516 14.8125C6.99903 16.2171 8.19543 17.3231 9.6725 17.8922C9.23511 17.0449 8.91336 15.9737 8.71672 14.8125H6.29516ZM6.29516 9.18749H8.71672C8.91336 8.02625 9.23511 6.95507 9.6725 6.1078C8.19543 6.67691 6.99899 7.78288 6.29516 9.18749ZM12.0283 5.68138C12.0133 5.68119 11.9996 5.67697 11.9848 5.67697C11.3604 5.69713 10.5443 7.0056 10.1407 9.18749H13.8591C13.4583 7.02046 12.6511 5.71836 12.0283 5.68138ZM11.9848 18.323C11.9996 18.3228 12.0134 18.3187 12.0284 18.3186C12.6509 18.2816 13.4582 16.9797 13.8591 14.8125H10.1407C10.5443 16.9944 11.3604 18.3028 11.9848 18.323ZM8.48436 12C8.48436 11.5322 8.50358 11.0606 8.54169 10.5937H5.77588C5.67205 11.0477 5.60596 11.5151 5.60596 12C5.60596 12.4849 5.67224 12.9523 5.77588 13.4062H8.54169C8.50356 12.9385 8.48443 12.4693 8.48436 12ZM14.3547 6.15749C14.7786 6.99646 15.0906 8.04969 15.2833 9.18749H17.573C16.8936 7.83177 15.7621 6.74267 14.3547 6.15749ZM15.5156 12C15.5156 12.4678 15.4964 12.9394 15.4583 13.4062H18.0923C18.1961 12.9523 18.2622 12.4849 18.2622 12C18.2622 11.5151 18.1961 11.0477 18.0923 10.5937H15.4583C15.4964 11.0606 15.5156 11.5322 15.5156 12Z" fill="black"/>
<path d="M24 12C24 5.40891 18.5911 0 12 0C5.40891 0 0 5.40891 0 12C0 18.5911 5.40891 24 12 24C14.2055 24 16.3486 23.3516 18.2197 22.2098L24 24L22.3506 17.9828C23.3996 16.17 24 14.1086 24 12ZM12.0564 19.7281C12.0374 19.7289 12.0194 19.7344 12 19.7344C11.9929 19.7344 11.9864 19.7322 11.9793 19.732C11.9641 19.7322 11.9493 19.7344 11.9341 19.7344C7.66941 19.7344 4.19972 16.2647 4.19972 12C4.19972 7.73531 7.66941 4.26562 11.9341 4.26562C11.9493 4.26562 11.9641 4.26783 11.9793 4.26797C11.9865 4.26783 11.9929 4.26562 12 4.26562C12.0194 4.26562 12.0374 4.27111 12.0564 4.27186C16.2645 4.33814 19.6684 7.77647 19.6684 12C19.6684 16.2235 16.2645 19.6619 12.0564 19.7281Z" fill="black"/>
<path d="M9.94903 10.5938C9.91186 11.0387 9.89062 11.5073 9.89062 12C9.89062 12.4928 9.91186 12.9613 9.94903 13.4062H14.051C14.0881 12.9613 14.1094 12.4928 14.1094 12C14.1094 11.5073 14.0881 11.0387 14.051 10.5938H9.94903ZM14.3547 17.8425C15.7621 17.2573 16.8937 16.1682 17.573 14.8125H15.2833C15.0906 15.9503 14.7786 17.0035 14.3547 17.8425Z" fill="black"/>
</g>
<defs>
<clipPath id="clip0_75_92">
<rect width="24" height="24" fill="white"/>
</clipPath>
</defs>
</svg>
