<svg width="22" height="17" viewBox="0 0 22 17" fill="none" xmlns="http://www.w3.org/2000/svg">
<path d="M21 8H3.41397L8.70697 2.707C8.80248 2.61475 8.87866 2.50441 8.93107 2.3824C8.98348 2.2604 9.01107 2.12918 9.01222 1.9964C9.01337 1.86362 8.98807 1.73194 8.93779 1.60905C8.88751 1.48615 8.81326 1.3745 8.71936 1.2806C8.62547 1.18671 8.51382 1.11246 8.39092 1.06218C8.26803 1.0119 8.13635 0.986595 8.00357 0.987749C7.87079 0.988903 7.73957 1.01649 7.61757 1.0689C7.49556 1.12131 7.38522 1.19749 7.29297 1.293L0.29297 8.293C0.105499 8.48053 0.000183105 8.73483 0.000183105 9C0.000183105 9.26516 0.105499 9.51947 0.29297 9.707L7.29297 16.707C7.48157 16.8892 7.73417 16.99 7.99637 16.9877C8.25857 16.9854 8.50938 16.8802 8.69479 16.6948C8.8802 16.5094 8.98536 16.2586 8.98764 15.9964C8.98992 15.7342 8.88913 15.4816 8.70697 15.293L3.41397 10H21C21.2652 10 21.5195 9.89464 21.7071 9.70711C21.8946 9.51957 22 9.26522 22 9C22 8.73478 21.8946 8.48043 21.7071 8.29289C21.5195 8.10536 21.2652 8 21 8Z" fill="black"/>
</svg>
