<svg width="20" height="20" viewBox="0 0 20 20" fill="none" xmlns="http://www.w3.org/2000/svg">
<path d="M16.753 5.16719C16.7873 4.88859 16.8045 4.60816 16.8045 4.32746C16.8045 1.9375 14.8671 0 12.4771 0H5.24497C4.79005 0 4.40165 0.328516 4.32619 0.777109L1.66134 16.616C1.56572 17.1843 2.00384 17.7023 2.58013 17.7023H5.22509C5.68001 17.7023 6.07572 17.374 6.15115 16.9254L6.16353 16.8517H6.16357L5.79497 19.0426C5.71076 19.5435 6.09689 20 6.60482 20H8.91876C9.31974 20 9.66208 19.7104 9.72857 19.315L10.386 15.408C10.4993 14.7345 11.0824 14.2413 11.7653 14.2413H12.3732C15.6751 14.2413 18.3519 11.5646 18.3519 8.26266C18.3519 6.98496 17.7203 5.85555 16.753 5.16719Z" fill="#002987"/>
<path d="M16.753 5.16718C16.3392 8.53354 13.47 11.1402 9.99183 11.1402H7.97366C7.51816 11.1402 7.12476 11.4436 7.00136 11.8726L5.79503 19.0425C5.71077 19.5434 6.0969 20 6.60483 20H8.91878C9.31976 20 9.6621 19.7104 9.72858 19.315L10.386 15.408C10.4993 14.7345 11.0824 14.2413 11.7653 14.2413H12.3732C15.6751 14.2413 18.3519 11.5646 18.3519 8.26264C18.3519 6.98495 17.7203 5.85553 16.753 5.16718Z" fill="#0085CC"/>
<path d="M7.97369 11.1402H9.99185C13.4701 11.1402 16.3392 8.53356 16.753 5.16723C16.1324 4.72559 15.374 4.46497 14.5542 4.46497H9.28662C8.68689 4.46497 8.17482 4.89805 8.07529 5.48946L7.00134 11.8726C7.12474 11.4436 7.51818 11.1402 7.97369 11.1402Z" fill="#00186A"/>
</svg>
