<svg width="24" height="24" viewBox="0 0 24 24" fill="none" xmlns="http://www.w3.org/2000/svg">
<path d="M21.9075 8.88001C21.4699 8.81644 21.0522 8.65496 20.6856 8.4076C20.3191 8.16024 20.013 7.83337 19.7903 7.45132C19.5675 7.06928 19.4339 6.64192 19.3992 6.20105C19.3645 5.76018 19.4297 5.31717 19.59 4.90501C19.6919 4.63555 19.7069 4.34097 19.6329 4.06255C19.559 3.78414 19.3997 3.53585 19.1775 3.35251C18.1965 2.52875 17.0799 1.88164 15.8775 1.44001C15.6037 1.33829 15.3048 1.32559 15.0233 1.40369C14.7419 1.4818 14.4922 1.64674 14.31 1.87501C14.0357 2.22575 13.6852 2.50942 13.2849 2.70452C12.8847 2.89961 12.4453 3.001 12 3.001C11.5548 3.001 11.1153 2.89961 10.7151 2.70452C10.3149 2.50942 9.96431 2.22575 9.69002 1.87501C9.50778 1.64674 9.25816 1.4818 8.9767 1.40369C8.69525 1.32559 8.39632 1.33829 8.12252 1.44001C7.01227 1.84774 5.97421 2.43006 5.04752 3.16501C4.81392 3.34993 4.64567 3.60478 4.56739 3.89224C4.48912 4.17971 4.50493 4.48468 4.61252 4.76251C4.78558 5.18557 4.85709 5.64331 4.8213 6.09901C4.7855 6.5547 4.64341 6.99566 4.40642 7.38652C4.16942 7.77738 3.84412 8.10725 3.45661 8.34968C3.0691 8.59212 2.63016 8.74035 2.17502 8.78251C1.87952 8.8141 1.60198 8.93973 1.38325 9.14091C1.16452 9.34209 1.01616 9.60818 0.960016 9.90001C0.820364 10.5913 0.750016 11.2948 0.750016 12C0.74899 12.5904 0.796651 13.1799 0.892516 13.7625C0.940227 14.0637 1.08583 14.3408 1.3068 14.5509C1.52778 14.761 1.81182 14.8925 2.11502 14.925C2.58016 14.9687 3.02808 15.1231 3.42129 15.3754C3.8145 15.6277 4.14156 15.9705 4.37509 16.3751C4.60862 16.7798 4.74182 17.2344 4.76356 17.7011C4.78529 18.1678 4.69492 18.6329 4.50002 19.0575C4.37246 19.3337 4.34082 19.6446 4.41012 19.9408C4.47942 20.237 4.64568 20.5016 4.88252 20.6925C5.8576 21.5013 6.96345 22.1379 8.15252 22.575C8.30457 22.6277 8.46411 22.6555 8.62502 22.6575C8.84564 22.657 9.06294 22.6037 9.25868 22.5019C9.45443 22.4001 9.62292 22.2528 9.75002 22.0725C10.0173 21.683 10.3757 21.3647 10.7939 21.1451C11.2121 20.9256 11.6776 20.8114 12.15 20.8125C12.6077 20.8131 13.0589 20.9205 13.4678 21.1262C13.8766 21.332 14.2318 21.6303 14.505 21.9975C14.6867 22.2418 14.9442 22.4191 15.2372 22.5019C15.5302 22.5846 15.8423 22.5681 16.125 22.455C17.2123 22.0174 18.2245 21.4126 19.125 20.6625C19.3512 20.4755 19.5123 20.2215 19.5851 19.9372C19.6578 19.6528 19.6386 19.3527 19.53 19.08C19.3536 18.6624 19.2767 18.2095 19.3053 17.7571C19.334 17.3046 19.4674 16.865 19.6951 16.473C19.9227 16.081 20.2384 15.7472 20.6171 15.4981C20.9959 15.249 21.4274 15.0913 21.8775 15.0375C22.1694 14.9971 22.4409 14.8649 22.6526 14.6599C22.8643 14.455 23.0052 14.1879 23.055 13.8975C23.1755 13.2719 23.2407 12.637 23.25 12C23.2502 11.3281 23.1874 10.6577 23.0625 9.99751C23.0119 9.71348 22.873 9.45264 22.6657 9.25203C22.4583 9.05142 22.1931 8.92125 21.9075 8.88001ZM15.75 12C15.75 12.7417 15.5301 13.4667 15.118 14.0834C14.706 14.7001 14.1203 15.1807 13.4351 15.4646C12.7499 15.7484 11.9959 15.8226 11.2684 15.678C10.541 15.5333 9.87281 15.1761 9.34837 14.6517C8.82392 14.1272 8.46677 13.459 8.32207 12.7316C8.17738 12.0042 8.25164 11.2502 8.53547 10.5649C8.8193 9.87972 9.29994 9.29405 9.91663 8.882C10.5333 8.46994 11.2583 8.25001 12 8.25001C12.9946 8.25001 13.9484 8.64509 14.6517 9.34836C15.3549 10.0516 15.75 11.0054 15.75 12Z" fill="black" fill-opacity="0.75"/>
</svg>
