<svg width="24" height="24" viewBox="0 0 24 24" fill="none" xmlns="http://www.w3.org/2000/svg">
<g clip-path="url(#clip0_62_364)">
<path d="M19.5 15.75C18.932 15.7505 18.3716 15.8801 17.861 16.1289C17.3504 16.3777 16.903 16.7393 16.5525 17.1863L8.11875 12.9712C8.29133 12.3352 8.29133 11.6648 8.11875 11.0287L16.5525 6.81375C18.7125 9.585 23.25 8.05875 23.25 4.5C23.2517 3.96514 23.139 3.4361 22.9194 2.94838C22.6999 2.46067 22.3785 2.02557 21.9769 1.6723C21.5753 1.31902 21.1028 1.05573 20.5911 0.900115C20.0794 0.744497 19.5403 0.700147 19.01 0.770041C18.4797 0.839935 17.9705 1.02246 17.5166 1.30535C17.0627 1.58825 16.6745 1.96498 16.3782 2.41025C16.0818 2.85551 15.8842 3.35902 15.7985 3.88697C15.7128 4.41493 15.741 4.9551 15.8812 5.47125L7.4475 9.68625C5.2875 6.915 0.75 8.44125 0.75 12C0.75 15.5587 5.2875 17.085 7.4475 14.3137L15.8812 18.5287C15.7323 19.0841 15.7131 19.6663 15.8251 20.2303C15.9371 20.7942 16.1772 21.3249 16.527 21.7813C16.8768 22.2376 17.3268 22.6074 17.8423 22.8621C18.3578 23.1168 18.925 23.2495 19.5 23.25C24.4762 23.0437 24.4725 15.9562 19.5 15.75Z" fill="black" fill-opacity="0.75"/>
</g>
<defs>
<clipPath id="clip0_62_364">
<rect width="24" height="24" fill="white"/>
</clipPath>
</defs>
</svg>
