<svg width="24" height="24" viewBox="0 0 24 24" fill="none" xmlns="http://www.w3.org/2000/svg">
<g clip-path="url(#clip0_32_326)">
<path d="M23.9374 8.73752C23.8607 8.49969 23.7156 8.2897 23.5204 8.13374C23.3251 7.97778 23.0882 7.88274 22.8393 7.86046L15.9123 7.23143L13.1731 0.820174C12.9711 0.350334 12.5112 0.0462952 12.0001 0.0462952C11.4891 0.0462952 11.0291 0.350381 10.8271 0.821346L8.08796 7.23148L1.1598 7.86046C0.911176 7.88324 0.674703 7.97848 0.479701 8.13439C0.284698 8.29029 0.139741 8.5 0.0628033 8.73752C-0.0952164 9.22353 0.0507092 9.75656 0.435797 10.0926L5.67187 14.6846L4.12786 21.4858C4.01489 21.9859 4.20896 22.5029 4.6239 22.8028C4.84689 22.9639 5.10785 23.046 5.37097 23.046C5.59785 23.046 5.82286 22.9848 6.02489 22.8639L12.0001 19.2927L17.9732 22.8639C18.4102 23.1269 18.9612 23.1029 19.3752 22.8028C19.5779 22.6561 19.733 22.453 19.8212 22.2189C19.9094 21.9847 19.9268 21.7298 19.8713 21.4858L18.3273 14.6846L23.5633 10.0935C23.7517 9.929 23.8876 9.71278 23.9541 9.4717C24.0206 9.23063 24.0148 8.97533 23.9374 8.73752Z" fill="#FFC107"/>
</g>
<defs>
<clipPath id="clip0_32_326">
<rect width="24" height="24" fill="white"/>
</clipPath>
</defs>
</svg>
